<svg width="52" height="52" viewBox="0 0 52 52" fill="none" xmlns="http://www.w3.org/2000/svg">
<rect width="52" height="52" rx="10" fill="#F6F6F6"/>
<path d="M18.6087 18.6429V16.8696C18.6087 16.3893 18.998 16 19.4783 16C19.9585 16 20.3478 16.3893 20.3478 16.8696V18.6429H22.0815C22.5648 18.6429 22.9565 19.0406 22.9565 19.5238C22.9565 20.0071 22.5648 20.4048 22.0815 20.4048H20.3478V22.1781C20.3478 22.6583 19.9585 23.0476 19.4783 23.0476C18.998 23.0476 18.6087 22.6583 18.6087 22.1781V20.4048H16.875C16.3918 20.4048 16 20.0071 16 19.5238C16 19.0406 16.3918 18.6429 16.875 18.6429H18.6087ZM20.3424 23.9286C20.8256 23.9286 21.2174 23.5368 21.2174 23.0536V22.1607C21.2174 21.6775 21.6091 21.2857 22.0924 21.2857H22.9511C23.4343 21.2857 23.8261 20.894 23.8261 20.4107V19.5179C23.8261 19.0346 24.2178 18.6429 24.7011 18.6429H29.5243C29.7718 18.6429 30.0077 18.7477 30.1736 18.9314L31.2438 20.1162C31.4097 20.2999 31.6456 20.4048 31.8931 20.4048H34.2609C35.2174 20.4048 36 21.1976 36 22.1667V32.7381C36 33.7071 35.2174 34.5 34.2609 34.5H20.3478C19.3913 34.5 18.6087 33.7071 18.6087 32.7381V24.8036C18.6087 24.3203 19.0004 23.9286 19.4837 23.9286H20.3424ZM27.3043 31.8571C29.7043 31.8571 31.6522 29.8838 31.6522 27.4524C31.6522 25.021 29.7043 23.0476 27.3043 23.0476C24.9043 23.0476 22.9565 25.021 22.9565 27.4524C22.9565 29.8838 24.9043 31.8571 27.3043 31.8571ZM24.5217 27.4524C24.5217 29.0117 25.7652 30.2714 27.3043 30.2714C28.8435 30.2714 30.087 29.0117 30.087 27.4524C30.087 25.8931 28.8435 24.6333 27.3043 24.6333C25.7652 24.6333 24.5217 25.8931 24.5217 27.4524Z" fill="#4D4D4D"/>
</svg>
